# xmcd
#
# Track frame offsets: 
#        150
#        14090
#        35665
#        49755
#        70005
#        87307
#        99252
#        122355
#        144180
#        166684
#        187755
#
# Disc length: 2702 seconds
#
# Revision: 0
# Processed by: cddbd v1.5.2PL0 Copyright (c) Steve Scherf et al.
# Submitted via: ExactAudioCopy v0.99pb3
#
DISCID=800a8c0b
DTITLE=Michael Burks Band - From the Inside Out
DYEAR=1997
DGENRE=Blues
TTITLE0=Find Me a New Love
TTITLE1=From the Inside Out
TTITLE2=Talk to Me Baby
TTITLE3=Little Did I Know
TTITLE4=Lyin', Sneakin' and Cheatin'
TTITLE5=Play Hard for My Money
TTITLE6=Lonely Heart
TTITLE7=Nothin' Else to Do
TTITLE8=Can You Feel It
TTITLE9=Too Hard to Please
TTITLE10=Jammin' at the Wheel
EXTD=
EXTT0=
EXTT1=
EXTT2=
EXTT3=
EXTT4=
EXTT5=
EXTT6=
EXTT7=
EXTT8=
EXTT9=
EXTT10=
PLAYORDER=
